<svg width="284" height="284" viewBox="0 0 284 284" fill="none" xmlns="http://www.w3.org/2000/svg">
<g clip-path="url(#clip0_11_6)">
<circle cx="142" cy="142" r="142" fill="#1DD8D7"/>
<circle cx="70" cy="104" r="7" fill="#008382"/>
<circle cx="256" cy="104" r="7" fill="#008382"/>
<circle cx="214" cy="149" r="7" fill="#008382"/>
<circle cx="197" cy="82" r="7" fill="#008382"/>
<circle cx="176" cy="27" r="7" fill="#008382"/>
<circle cx="95" cy="255" r="7" fill="#008382"/>
<circle cx="101" cy="34" r="7" fill="#008382"/>
<circle cx="133" cy="90" r="7" fill="#008382"/>
<circle cx="147" cy="204" r="7" fill="#008382"/>
<circle cx="189" cy="249" r="7" fill="#008382"/>
<circle cx="228" cy="190" r="7" fill="#008382"/>
<circle cx="94" cy="168" r="7" fill="#008382"/>
<circle cx="49" cy="204" r="7" fill="#008382"/>
<circle cx="35" cy="135" r="7" fill="#008382"/>
<circle cx="56" cy="48" r="7" fill="#008382"/>
<path d="M57 47L102 34L133 91M57 47L133 91M57 47L69 106L133 91" stroke="#008382" stroke-width="4"/>
<line x1="176.368" y1="26.5415" x2="257.368" y2="102.541" stroke="#008382" stroke-width="4"/>
<path d="M175.342 27.6354L197 85L256.342 103.635" stroke="#008382" stroke-width="4"/>
<line x1="100.867" y1="31.0044" x2="175.867" y2="26.0044" stroke="#008382" stroke-width="4"/>
<line x1="132.783" y1="88.0119" x2="196.783" y2="81.0119" stroke="#008382" stroke-width="4"/>
<line x1="101.924" y1="31.2262" x2="197.924" y2="81.2262" stroke="#008382" stroke-width="4"/>
<line x1="130.365" y1="86.8477" x2="173.365" y2="25.8477" stroke="#008382" stroke-width="4"/>
<line x1="74.2393" y1="106.57" x2="36.2393" y2="136.57" stroke="#008382" stroke-width="4"/>
<line x1="35.9638" y1="133.248" x2="95.9638" y2="166.248" stroke="#008382" stroke-width="4"/>
<line x1="95.3099" y1="166.511" x2="50.3099" y2="205.511" stroke="#008382" stroke-width="4"/>
<line x1="47.0411" y1="203.403" x2="33.0411" y2="135.403" stroke="#008382" stroke-width="4"/>
<line x1="96.1595" y1="165.37" x2="148.16" y2="202.37" stroke="#008382" stroke-width="4"/>
<line x1="91.6127" y1="253.559" x2="145.613" y2="201.559" stroke="#008382" stroke-width="4"/>
<line x1="49.5342" y1="201.717" x2="95.5342" y2="256.717" stroke="#008382" stroke-width="4"/>
<line x1="48" y1="202" x2="144" y2="202" stroke="#008382" stroke-width="4"/>
<line x1="95" y1="166" x2="95" y2="258" stroke="#008382" stroke-width="4"/>
<line x1="146.683" y1="201.025" x2="227.683" y2="188.025" stroke="#008382" stroke-width="4"/>
<line x1="145.731" y1="202.454" x2="212.731" y2="147.454" stroke="#008382" stroke-width="4"/>
<line x1="215.914" y1="148.421" x2="228.914" y2="191.421" stroke="#008382" stroke-width="4"/>
<line x1="189.29" y1="249.963" x2="226.29" y2="188.963" stroke="#008382" stroke-width="4"/>
<line x1="92.856" y1="256.005" x2="189.856" y2="249.005" stroke="#008382" stroke-width="4"/>
<line x1="212.569" y1="145.603" x2="254.569" y2="102.603" stroke="#008382" stroke-width="4"/>
<line x1="212.836" y1="149.626" x2="131.836" y2="91.6261" stroke="#008382" stroke-width="4"/>
<line x1="92.2111" y1="167.106" x2="131.211" y2="89.1056" stroke="#008382" stroke-width="4"/>
<line x1="94.6847" y1="166.025" x2="213.685" y2="147.025" stroke="#008382" stroke-width="4"/>
<line x1="259.895" y1="101.639" x2="229.895" y2="190.639" stroke="#008382" stroke-width="4"/>
<line x1="148.507" y1="202.685" x2="189.507" y2="249.685" stroke="#008382" stroke-width="4"/>
<line x1="33.0422" y1="138.591" x2="52.0422" y2="47.5912" stroke="#008382" stroke-width="4"/>
<line x1="70.8762" y1="103.307" x2="94.8762" y2="168.307" stroke="#008382" stroke-width="4"/>
<line x1="198.937" y1="81.5011" x2="215.937" y2="147.501" stroke="#008382" stroke-width="4"/>
<g filter="url(#filter0_dddd_11_6)">
<path d="M63.9295 111.72V118.88H55.7695V130H46.1695V100H65.8495L64.6495 107.68H55.7695V111.72H63.9295ZM68.7477 130V106H73.5477L76.1877 108.68C78.1077 106.92 80.481 105.787 83.3077 105.28L83.8677 114.36C83.4943 114.36 83.041 114.413 82.5077 114.52C81.9743 114.627 81.4277 114.76 80.8677 114.92C80.3343 115.08 79.841 115.28 79.3877 115.52C78.9343 115.733 78.5877 115.987 78.3477 116.28V130H68.7477ZM85.7955 118C85.7955 113.707 86.7955 110.52 88.7955 108.44C90.7955 106.333 94.0355 105.28 98.5155 105.28C102.995 105.28 106.235 106.333 108.235 108.44C110.235 110.52 111.235 113.707 111.235 118C111.235 122.293 110.235 125.493 108.235 127.6C106.235 129.68 102.995 130.72 98.5155 130.72C94.1421 130.72 90.9288 129.693 88.8755 127.64C86.8221 125.587 85.7955 122.373 85.7955 118ZM96.1155 114.32V123.72H97.5955C98.7688 123.72 99.6088 123.6 100.115 123.36C100.649 123.12 100.915 122.56 100.915 121.68V112.28H99.4355C98.2621 112.28 97.4088 112.4 96.8755 112.64C96.3688 112.88 96.1155 113.44 96.1155 114.32ZM115.076 106H119.876L122.276 108.4C125.236 106.32 128.436 105.28 131.876 105.28C134.142 105.28 135.902 105.773 137.156 106.76C138.436 107.72 139.076 109.067 139.076 110.8V130H129.476V113.2H127.996C126.902 113.2 126.076 113.32 125.516 113.56C124.956 113.773 124.676 114.267 124.676 115.04V130H115.076V106ZM144.59 112.2H142.19V106H144.59V102.16L154.19 99.76V106H157.51V112.2H154.19V123.12C154.59 123.2 155.03 123.28 155.51 123.36C155.99 123.413 156.497 123.453 157.03 123.48L156.59 130.52C152.217 130.52 149.364 130.28 148.03 129.8C146.91 129.4 146.057 128.893 145.47 128.28C144.884 127.64 144.59 126.707 144.59 125.48V112.2ZM180.291 111.72V118.68H170.691V122.32H182.451V130H161.091V100H182.211L181.011 107.68H170.691V111.72H180.291ZM186.521 106H191.321L193.721 108.4C196.681 106.32 199.881 105.28 203.321 105.28C205.588 105.28 207.348 105.773 208.601 106.76C209.881 107.72 210.521 109.067 210.521 110.8V130H200.921V113.2H199.441C198.348 113.2 197.521 113.32 196.961 113.56C196.401 113.773 196.121 114.267 196.121 115.04V130H186.521V106ZM238.836 98.08V130H234.036L231.956 128C230.596 129.813 228.089 130.72 224.436 130.72C222.516 130.72 220.902 130.373 219.596 129.68C218.289 128.987 217.222 128.067 216.396 126.92C215.596 125.747 215.009 124.387 214.636 122.84C214.289 121.293 214.116 119.68 214.116 118C214.116 116.4 214.276 114.88 214.596 113.44C214.916 111.973 215.449 110.693 216.196 109.6C216.942 108.507 217.929 107.64 219.156 107C220.382 106.333 221.902 106 223.716 106H229.236V98.8L238.836 98.08ZM224.436 114.32V123.72H225.916C227.009 123.72 227.809 123.627 228.316 123.44C228.849 123.227 229.156 122.747 229.236 122V112.28H227.756C226.582 112.28 225.729 112.4 225.196 112.64C224.689 112.88 224.436 113.44 224.436 114.32ZM43.2184 171.4L43.9384 179.48C41.8851 180.307 39.3518 180.72 36.3384 180.72C33.4851 180.72 31.1251 180.413 29.2584 179.8C27.3918 179.16 25.9118 178.2 24.8184 176.92C23.7251 175.64 22.9518 174.013 22.4984 172.04C22.0718 170.067 21.8584 167.733 21.8584 165.04C21.8584 162.427 22.0584 160.147 22.4584 158.2C22.8851 156.227 23.6318 154.587 24.6984 153.28C25.7651 151.947 27.2051 150.947 29.0184 150.28C30.8584 149.613 33.1784 149.28 35.9784 149.28C36.5918 149.28 37.2718 149.32 38.0184 149.4C38.7918 149.453 39.5384 149.533 40.2584 149.64C41.0051 149.747 41.6984 149.88 42.3384 150.04C43.0051 150.173 43.5384 150.333 43.9384 150.52L42.4984 157.88C40.3651 157.427 38.4584 157.2 36.7784 157.2C35.0451 157.2 33.8451 157.36 33.1784 157.68C32.5118 158 32.1784 158.64 32.1784 159.6V172.16C32.7918 172.293 33.4051 172.4 34.0184 172.48C34.6584 172.533 35.3118 172.56 35.9784 172.56C38.6451 172.56 41.0584 172.173 43.2184 171.4ZM56.8828 165.2V180H47.2828V148.8L56.8828 148.08V156.88C58.9361 155.813 61.2028 155.28 63.6828 155.28C66.1895 155.28 68.0828 155.773 69.3628 156.76C70.6428 157.72 71.2828 159.067 71.2828 160.8V180H61.6828V163.2H60.2028C59.0295 163.2 58.1761 163.32 57.6428 163.56C57.1361 163.8 56.8828 164.347 56.8828 165.2ZM87.1975 155.28C94.8775 155.28 98.7175 157.92 98.7175 163.2V180H93.9175L91.1975 177.28C90.7175 177.813 90.1442 178.293 89.4775 178.72C88.8375 179.147 88.1442 179.507 87.3975 179.8C86.6508 180.093 85.8908 180.32 85.1175 180.48C84.3442 180.64 83.5975 180.72 82.8775 180.72C81.5175 180.72 80.2908 180.573 79.1975 180.28C78.1308 180.013 77.2242 179.573 76.4775 178.96C75.7308 178.347 75.1575 177.533 74.7575 176.52C74.3575 175.507 74.1575 174.267 74.1575 172.8C74.1575 167.04 78.5042 164.16 87.1975 164.16H89.1175V162.44C88.6108 162.413 88.1442 162.387 87.7175 162.36C87.3175 162.333 86.9442 162.32 86.5975 162.32C82.9975 162.32 79.8908 162.76 77.2775 163.64L76.1175 156.76C79.3175 155.773 83.0108 155.28 87.1975 155.28ZM83.8375 171.76V173.72H85.8375C87.2242 173.72 88.1308 173.56 88.5575 173.24C88.9308 172.893 89.1175 172.48 89.1175 172V169.72H87.1575C86.0108 169.72 85.1708 169.84 84.6375 170.08C84.1042 170.32 83.8375 170.88 83.8375 171.76ZM103.025 148.8L112.625 148.08V173.12C113.132 173.227 113.585 173.307 113.985 173.36C114.385 173.413 114.718 173.453 114.985 173.48L114.545 180.52C110.465 180.52 107.758 180.28 106.425 179.8C105.305 179.4 104.452 178.88 103.865 178.24C103.305 177.6 103.025 176.68 103.025 175.48V148.8ZM117.869 148.8L127.469 148.08V173.12C127.975 173.227 128.429 173.307 128.829 173.36C129.229 173.413 129.562 173.453 129.829 173.48L129.389 180.52C125.309 180.52 122.602 180.28 121.269 179.8C120.149 179.4 119.295 178.88 118.709 178.24C118.149 177.6 117.869 176.68 117.869 175.48V148.8ZM144.073 155.28C151.753 155.28 155.593 157.92 155.593 163.2V180H150.793L148.073 177.28C147.593 177.813 147.019 178.293 146.353 178.72C145.713 179.147 145.019 179.507 144.273 179.8C143.526 180.093 142.766 180.32 141.993 180.48C141.219 180.64 140.473 180.72 139.753 180.72C138.393 180.72 137.166 180.573 136.073 180.28C135.006 180.013 134.099 179.573 133.353 178.96C132.606 178.347 132.033 177.533 131.632 176.52C131.233 175.507 131.033 174.267 131.033 172.8C131.033 167.04 135.379 164.16 144.073 164.16H145.993V162.44C145.486 162.413 145.019 162.387 144.593 162.36C144.193 162.333 143.819 162.32 143.473 162.32C139.873 162.32 136.766 162.76 134.153 163.64L132.993 156.76C136.193 155.773 139.886 155.28 144.073 155.28ZM140.713 171.76V173.72H142.713C144.099 173.72 145.006 173.56 145.433 173.24C145.806 172.893 145.993 172.48 145.993 172V169.72H144.033C142.886 169.72 142.046 169.84 141.513 170.08C140.979 170.32 140.713 170.88 140.713 171.76ZM159.9 156H164.7L167.1 158.4C170.06 156.32 173.26 155.28 176.7 155.28C178.967 155.28 180.727 155.773 181.98 156.76C183.26 157.72 183.9 159.067 183.9 160.8V180H174.3V163.2H172.82C171.727 163.2 170.9 163.32 170.34 163.56C169.78 163.773 169.5 164.267 169.5 165.04V180H159.9V156ZM187.175 186.48L188.415 179.32C191.161 180.253 194.348 180.72 197.975 180.72C198.508 180.72 198.961 180.707 199.335 180.68C199.735 180.68 200.041 180.667 200.255 180.64V178.96C198.815 178.96 197.641 178.933 196.735 178.88C195.828 178.8 195.148 178.693 194.695 178.56C193.788 178.32 193.215 178.08 192.975 177.84C192.681 177.6 192.508 177.413 192.455 177.28C192.401 177.12 192.375 176.893 192.375 176.6L193.815 172.48C191.521 172.053 189.775 171.187 188.575 169.88C187.375 168.547 186.775 166.48 186.775 163.68C186.775 160.907 187.721 158.813 189.615 157.4C191.508 155.987 194.575 155.28 198.815 155.28C199.588 155.28 200.308 155.307 200.975 155.36C201.641 155.387 202.281 155.453 202.895 155.56L207.095 152.36L212.135 157.2L209.375 160.4C209.801 161.493 210.015 162.933 210.015 164.72C210.015 165.973 209.868 167.067 209.575 168C209.281 168.933 208.788 169.72 208.095 170.36C207.428 171 206.548 171.507 205.455 171.88C204.361 172.227 203.001 172.467 201.375 172.6L201.175 173.76C202.908 173.867 204.375 174.04 205.575 174.28C206.775 174.493 207.748 174.84 208.495 175.32C209.241 175.8 209.775 176.413 210.095 177.16C210.441 177.907 210.615 178.853 210.615 180C210.615 181.92 210.228 183.413 209.455 184.48C208.681 185.547 207.668 186.333 206.415 186.84C205.188 187.347 203.788 187.653 202.215 187.76C200.668 187.867 199.108 187.92 197.535 187.92C194.361 187.92 190.908 187.44 187.175 186.48ZM195.815 163.68V166.8H197.295C198.441 166.8 199.281 166.68 199.815 166.44C200.348 166.2 200.615 165.653 200.615 164.8V161.68H199.095C197.948 161.68 197.108 161.8 196.575 162.04C196.068 162.28 195.815 162.827 195.815 163.68ZM223.518 171.84V173.52C223.998 173.573 224.478 173.613 224.958 173.64C225.438 173.667 225.918 173.68 226.398 173.68C229.384 173.68 232.398 173.2 235.438 172.24L236.558 179.28C232.958 180.24 229.411 180.72 225.918 180.72C221.438 180.72 218.198 179.68 216.198 177.6C214.198 175.493 213.198 172.293 213.198 168C213.198 163.707 214.198 160.52 216.198 158.44C218.224 156.333 221.464 155.28 225.918 155.28C228.158 155.28 230.024 155.427 231.518 155.72C233.011 155.987 234.211 156.453 235.118 157.12C236.051 157.76 236.704 158.64 237.078 159.76C237.478 160.853 237.678 162.24 237.678 163.92C237.678 165.307 237.438 166.507 236.958 167.52C236.504 168.507 235.731 169.32 234.638 169.96C233.544 170.6 232.091 171.08 230.278 171.4C228.464 171.693 226.211 171.84 223.518 171.84ZM223.518 164.32V166.28H225.478C226.651 166.28 227.491 166.16 227.998 165.92C228.531 165.68 228.798 165.12 228.798 164.24V162.28H226.838C225.664 162.28 224.811 162.4 224.278 162.64C223.771 162.88 223.518 163.44 223.518 164.32ZM243.587 156.96C245.641 155.84 248.454 155.28 252.027 155.28C255.627 155.28 258.921 155.773 261.907 156.76L260.787 163.28C259.534 162.907 258.294 162.64 257.067 162.48C255.841 162.32 254.587 162.24 253.307 162.24C252.934 162.24 252.467 162.253 251.907 162.28C251.374 162.307 250.761 162.36 250.067 162.44V163.96C251.534 163.96 253.041 164.04 254.587 164.2C256.134 164.333 257.534 164.68 258.787 165.24C260.067 165.773 261.107 166.587 261.907 167.68C262.734 168.747 263.147 170.213 263.147 172.08C263.147 173.387 263.001 174.56 262.707 175.6C262.414 176.613 261.961 177.427 261.347 178.04C260.707 178.653 260.041 179.147 259.347 179.52C258.681 179.893 257.801 180.16 256.707 180.32C255.854 180.453 254.934 180.547 253.947 180.6C252.987 180.68 251.947 180.72 250.827 180.72C246.907 180.72 243.321 180.253 240.067 179.32L241.267 172.52C242.627 172.92 244.027 173.227 245.467 173.44C246.907 173.653 248.414 173.76 249.987 173.76C250.707 173.76 251.387 173.747 252.027 173.72C252.694 173.693 253.334 173.64 253.947 173.56V172.04C251.387 172.04 249.241 171.88 247.507 171.56C245.801 171.213 244.414 170.693 243.347 170C242.307 169.307 241.561 168.4 241.107 167.28C240.681 166.16 240.467 164.827 240.467 163.28C240.467 160.187 241.507 158.08 243.587 156.96Z" fill="white"/>
</g>
</g>
<defs>
<filter id="filter0_dddd_11_6" x="17.8584" y="98.08" width="249.289" height="97.84" filterUnits="userSpaceOnUse" color-interpolation-filters="sRGB">
<feFlood flood-opacity="0" result="BackgroundImageFix"/>
<feColorMatrix in="SourceAlpha" type="matrix" values="0 0 0 0 0 0 0 0 0 0 0 0 0 0 0 0 0 0 127 0" result="hardAlpha"/>
<feOffset dy="4"/>
<feGaussianBlur stdDeviation="2"/>
<feComposite in2="hardAlpha" operator="out"/>
<feColorMatrix type="matrix" values="0 0 0 0 0 0 0 0 0 0 0 0 0 0 0 0 0 0 0.25 0"/>
<feBlend mode="normal" in2="BackgroundImageFix" result="effect1_dropShadow_11_6"/>
<feColorMatrix in="SourceAlpha" type="matrix" values="0 0 0 0 0 0 0 0 0 0 0 0 0 0 0 0 0 0 127 0" result="hardAlpha"/>
<feOffset dy="4"/>
<feGaussianBlur stdDeviation="2"/>
<feComposite in2="hardAlpha" operator="out"/>
<feColorMatrix type="matrix" values="0 0 0 0 0 0 0 0 0 0 0 0 0 0 0 0 0 0 0.25 0"/>
<feBlend mode="normal" in2="effect1_dropShadow_11_6" result="effect2_dropShadow_11_6"/>
<feColorMatrix in="SourceAlpha" type="matrix" values="0 0 0 0 0 0 0 0 0 0 0 0 0 0 0 0 0 0 127 0" result="hardAlpha"/>
<feOffset dy="4"/>
<feGaussianBlur stdDeviation="2"/>
<feComposite in2="hardAlpha" operator="out"/>
<feColorMatrix type="matrix" values="0 0 0 0 0 0 0 0 0 0 0 0 0 0 0 0 0 0 0.25 0"/>
<feBlend mode="normal" in2="effect2_dropShadow_11_6" result="effect3_dropShadow_11_6"/>
<feColorMatrix in="SourceAlpha" type="matrix" values="0 0 0 0 0 0 0 0 0 0 0 0 0 0 0 0 0 0 127 0" result="hardAlpha"/>
<feOffset dy="4"/>
<feGaussianBlur stdDeviation="2"/>
<feComposite in2="hardAlpha" operator="out"/>
<feColorMatrix type="matrix" values="0 0 0 0 0 0 0 0 0 0 0 0 0 0 0 0 0 0 0.25 0"/>
<feBlend mode="normal" in2="effect3_dropShadow_11_6" result="effect4_dropShadow_11_6"/>
<feBlend mode="normal" in="SourceGraphic" in2="effect4_dropShadow_11_6" result="shape"/>
</filter>
<clipPath id="clip0_11_6">
<rect width="284" height="284" fill="white"/>
</clipPath>
</defs>
</svg>
